<svg
  class="svg_icon"
  viewBox="0 0 16 16"
  fill="none"
  stroke="currentColor"
  stroke-width="1.5"
  stroke-linecap="round"
  stroke-linejoin="round"
>
  <g class="svg_icon__opened">
    <path d="M 8,4 C 5,4 2,7 2,8 2,9 5,12 8,12 11,12 14,9 14,8 14,7 11,4 8,4 Z" />
    <path d="M 8,4 V 2"/>
    <path d="M 13,4 12,5"/>
    <path d="M 3,4 4,5"/>
    <circle cy="8" cx="8" r="1" />
  </g>
  <g class="svg_icon__closed">
    <path d="m 2,6 c 0,1 3,4 6,4 3,0 6,-3 6,-4" />
    <path d="M 8,12 V 10" />
    <path d="M 13,10 12,9" />
    <path d="M 3,10 4,9" />
  </g>
</svg>
