<?xml version="1.0" encoding="UTF-8"?>
<svg width="1024px" height="350px" viewBox="0 0 1024 350" version="1.1" xmlns="http://www.w3.org/2000/svg" xmlns:xlink="http://www.w3.org/1999/xlink">
    <!-- Generator: Sketch 57.1 (83088) - https://sketch.com -->
    <title>sandbox1</title>
    <desc>Created with Sketch.</desc>
    <g id="sandbox1" stroke="none" stroke-width="1" fill="none" fill-rule="evenodd">
        <text id="1024-x-350-Test-SVG" font-family="SFProText-Regular, SF Pro Text" font-size="14" font-weight="normal" fill="#000000">
            <tspan x="37" y="42">1024 x 350</tspan>
            <tspan x="37" y="58">Test SVG</tspan>
        </text>
        <rect id="Rectangle" stroke-opacity="0.249890734" stroke="#000000" fill="#FF3B30" x="37" y="88" width="250" height="150" rx="4"></rect>
        <rect id="Rectangle-Copy" stroke-opacity="0.249890734" stroke="#000000" fill="#FFCC00" x="387" y="88" width="250" height="150" rx="4"></rect>
        <rect id="Rectangle-Copy-2" stroke-opacity="0.249890734" stroke="#000000" fill="#4CD964" x="737" y="88" width="250" height="150" rx="4"></rect>
        <path id="Line" d="M375.868686,155.388163 L390.289729,163.5 L375.868686,171.611837 L374.888163,169.868686 L384.43,164.5 L286.5,164.5 L286.5,162.5 L384.433,162.5 L374.888163,157.131314 L375.868686,155.388163 Z" fill="#000000" fill-rule="nonzero"></path>
        <path id="Line-Copy" d="M725.868686,155.388163 L740.289729,163.5 L725.868686,171.611837 L724.888163,169.868686 L734.432,164.5 L636.5,164.5 L636.5,162.5 L734.434,162.5 L724.888163,157.131314 L725.868686,155.388163 Z" fill="#000000" fill-rule="nonzero"></path>
        <path id="Path" d="M162,235.210271 L169.621576,248.759739 L167.878424,249.740261 L163,241.068 L163,297 L861,297 L861,238 L863,238 L863,299 L161,299 L161,241.068 L156.121576,249.740261 L154.378424,248.759739 L162,235.210271 Z" fill="#000000" fill-rule="nonzero"></path>
        <text id="Type-something" font-family="SFProText-Regular, SF Pro Text" font-size="24" font-weight="normal" fill="#FFFFFF">
            <tspan x="71.6660156" y="167">Type something</tspan>
        </text>
        <text id="Type-something-Copy" font-family="SFProText-Regular, SF Pro Text" font-size="24" font-weight="normal" fill="#000000">
            <tspan x="422.666016" y="167">Type something</tspan>
        </text>
        <text id="Type-something-Copy-2" font-family="SFProText-Regular, SF Pro Text" font-size="24" font-weight="normal" fill="#FF0000">
            <tspan x="773.666016" y="167">Type something</tspan>
        </text>
    </g>
</svg>