<?xml version="1.0" encoding="UTF-8" standalone="no"?>
<!-- Created with Inkscape (http://www.inkscape.org/) -->

<svg
   width="16"
   height="16"
   viewBox="0 0 16 16"
   version="1.1"
   id="svg1"
   inkscape:version="1.4.3 (0d15f75, 2025-12-25)"
   sodipodi:docname="document.svg"
   xmlns:inkscape="http://www.inkscape.org/namespaces/inkscape"
   xmlns:sodipodi="http://sodipodi.sourceforge.net/DTD/sodipodi-0.dtd"
   xmlns="http://www.w3.org/2000/svg"
   xmlns:svg="http://www.w3.org/2000/svg">
  <sodipodi:namedview
     id="namedview1"
     pagecolor="#ffffff"
     bordercolor="#000000"
     borderopacity="0.25"
     inkscape:showpageshadow="2"
     inkscape:pageopacity="0.0"
     inkscape:pagecheckerboard="0"
     inkscape:deskcolor="#d1d1d1"
     inkscape:document-units="px"
     showgrid="true"
     inkscape:zoom="38.890873"
     inkscape:cx="9.29524"
     inkscape:cy="5.438294"
     inkscape:window-width="1449"
     inkscape:window-height="1286"
     inkscape:window-x="470"
     inkscape:window-y="81"
     inkscape:window-maximized="0"
     inkscape:current-layer="svg1">
    <inkscape:grid
       id="grid1"
       units="px"
       originx="0"
       originy="0"
       spacingx="1"
       spacingy="1"
       empcolor="#0099e5"
       empopacity="0.30196078"
       color="#0099e5"
       opacity="0.14901961"
       empspacing="5"
       enabled="true"
       visible="true" />
  </sodipodi:namedview>
  <defs
     id="defs1" />
  <path
     style="fill:none;stroke:#000000;stroke-width:1.5;stroke-linecap:round;stroke-linejoin:round"
     d="M13,13 L13,8 C13,7.5 12.6,7 12,7 L9,7 C8.5,7 8,6.5 8,6 L8,3 C8,2.5 7.5,2 7,2 L4,2 C3.5,2 3,2.5 3,3 L3,13 C3,13.5 3.5,14 4,14 L12,14 C12.6,14 13,13.5 13,13 Z M13,9 L13,8 C13,7.5 13,7 12.5,6.5 L8.5,2.5 C8,2 7.5,2 7,2 L6,2"
     id="path1" />
</svg>
